<?xml version="1.0" encoding="UTF-8" standalone="no"?>
<!DOCTYPE svg PUBLIC "-//W3C//DTD SVG 1.1//EN"
 "http://www.w3.org/Graphics/SVG/1.1/DTD/svg11.dtd">
<!-- Generated by graphviz version 12.2.1 (20241206.2353)
 -->
<!-- Title: GraphBreakModule Pages: 1 -->
<svg width="905pt" height="561pt"
 viewBox="0.00 0.00 905.25 561.00" xmlns="http://www.w3.org/2000/svg" xmlns:xlink="http://www.w3.org/1999/xlink">
<g id="graph0" class="graph" transform="scale(1 1) rotate(0) translate(4 557)">
<title>GraphBreakModule</title>
<polygon fill="white" stroke="none" points="-4,4 -4,-557 901.25,-557 901.25,4 -4,4"/>
<!-- x -->
<g id="node1" class="node">
<title>x</title>
<path fill="AliceBlue" stroke="black" d="M12,-454.5C12,-454.5 121,-454.5 121,-454.5 127,-454.5 133,-460.5 133,-466.5 133,-466.5 133,-540.5 133,-540.5 133,-546.5 127,-552.5 121,-552.5 121,-552.5 12,-552.5 12,-552.5 6,-552.5 0,-546.5 0,-540.5 0,-540.5 0,-466.5 0,-466.5 0,-460.5 6,-454.5 12,-454.5"/>
<text text-anchor="middle" x="66.5" y="-535.2" font-family="Times,serif" font-size="14.00" fill="#000000">name=%x</text>
<polyline fill="none" stroke="black" points="0,-528 133,-528"/>
<text text-anchor="middle" x="66.5" y="-510.7" font-family="Times,serif" font-size="14.00" fill="#000000">op_code=placeholder</text>
<polyline fill="none" stroke="black" points="0,-503.5 133,-503.5"/>
<text text-anchor="middle" x="66.5" y="-486.2" font-family="Times,serif" font-size="14.00" fill="#000000">target=x</text>
<polyline fill="none" stroke="black" points="0,-479 133,-479"/>
<text text-anchor="middle" x="66.5" y="-461.7" font-family="Times,serif" font-size="14.00" fill="#000000">num_users=1</text>
</g>
<!-- linear1 -->
<g id="node2" class="node">
<title>linear1</title>
<path fill="#fffacd" stroke="black" d="M201.5,-295C201.5,-295 361.5,-295 361.5,-295 367.5,-295 373.5,-301 373.5,-307 373.5,-307 373.5,-405.5 373.5,-405.5 373.5,-411.5 367.5,-417.5 361.5,-417.5 361.5,-417.5 201.5,-417.5 201.5,-417.5 195.5,-417.5 189.5,-411.5 189.5,-405.5 189.5,-405.5 189.5,-307 189.5,-307 189.5,-301 195.5,-295 201.5,-295"/>
<text text-anchor="middle" x="281.5" y="-400.2" font-family="Times,serif" font-size="14.00" fill="#000000">name=%linear1</text>
<polyline fill="none" stroke="black" points="189.5,-393 373.5,-393"/>
<text text-anchor="middle" x="281.5" y="-375.7" font-family="Times,serif" font-size="14.00" fill="#000000">op_code=call_module</text>
<text text-anchor="middle" x="281.5" y="-343.2" font-family="Times,serif" font-size="14.00" fill="#000000">torch.nn.modules.linear.Linear</text>
<polyline fill="none" stroke="black" points="189.5,-336 373.5,-336"/>
<text text-anchor="middle" x="281.5" y="-318.7" font-family="Times,serif" font-size="14.00" fill="#000000">in_features: 10</text>
<text text-anchor="middle" x="281.5" y="-302.2" font-family="Times,serif" font-size="14.00" fill="#000000">out_features: 20</text>
</g>
<!-- x&#45;&gt;linear1 -->
<g id="edge5" class="edge">
<title>x&#45;&gt;linear1</title>
<path fill="none" stroke="black" d="M133.35,-457.34C148.95,-446.8 165.89,-435.35 182.56,-424.09"/>
<polygon fill="black" stroke="black" points="184.19,-427.21 190.52,-418.71 180.28,-421.41 184.19,-427.21"/>
</g>
<!-- linear2 -->
<g id="node5" class="node">
<title>linear2</title>
<path fill="#fffacd" stroke="black" d="M438.5,-135.5C438.5,-135.5 598.5,-135.5 598.5,-135.5 604.5,-135.5 610.5,-141.5 610.5,-147.5 610.5,-147.5 610.5,-246 610.5,-246 610.5,-252 604.5,-258 598.5,-258 598.5,-258 438.5,-258 438.5,-258 432.5,-258 426.5,-252 426.5,-246 426.5,-246 426.5,-147.5 426.5,-147.5 426.5,-141.5 432.5,-135.5 438.5,-135.5"/>
<text text-anchor="middle" x="518.5" y="-240.7" font-family="Times,serif" font-size="14.00" fill="#000000">name=%linear2</text>
<polyline fill="none" stroke="black" points="426.5,-233.5 610.5,-233.5"/>
<text text-anchor="middle" x="518.5" y="-216.2" font-family="Times,serif" font-size="14.00" fill="#000000">op_code=call_module</text>
<text text-anchor="middle" x="518.5" y="-183.7" font-family="Times,serif" font-size="14.00" fill="#000000">torch.nn.modules.linear.Linear</text>
<polyline fill="none" stroke="black" points="426.5,-176.5 610.5,-176.5"/>
<text text-anchor="middle" x="518.5" y="-159.2" font-family="Times,serif" font-size="14.00" fill="#000000">in_features: 20</text>
<text text-anchor="middle" x="518.5" y="-142.7" font-family="Times,serif" font-size="14.00" fill="#000000">out_features: 5</text>
</g>
<!-- linear1&#45;&gt;linear2 -->
<g id="edge6" class="edge">
<title>linear1&#45;&gt;linear2</title>
<path fill="none" stroke="black" d="M372.79,-294.58C387.59,-284.75 402.98,-274.52 417.98,-264.55"/>
<polygon fill="black" stroke="black" points="419.6,-267.67 426,-259.22 415.73,-261.84 419.6,-267.67"/>
</g>
<!-- linear1.weight -->
<g id="node3" class="node">
<title>linear1.weight</title>
<path fill="Salmon" stroke="black" d="M162.88,-479C162.88,-479 400.12,-479 400.12,-479 406.12,-479 412.12,-485 412.12,-491 412.12,-491 412.12,-516 412.12,-516 412.12,-522 406.12,-528 400.12,-528 400.12,-528 162.88,-528 162.88,-528 156.88,-528 150.88,-522 150.88,-516 150.88,-516 150.88,-491 150.88,-491 150.88,-485 156.88,-479 162.88,-479"/>
<text text-anchor="middle" x="281.5" y="-510.7" font-family="Times,serif" font-size="14.00" fill="#000000">linear1.weight</text>
<polyline fill="none" stroke="black" points="150.88,-503.5 412.12,-503.5"/>
<text text-anchor="middle" x="281.5" y="-486.2" font-family="Times,serif" font-size="14.00" fill="#000000">op_code=get_parametertorch.float32[20, 10]</text>
</g>
<!-- linear1.weight&#45;&gt;linear1 -->
<g id="edge1" class="edge">
<title>linear1.weight&#45;&gt;linear1</title>
<path fill="none" stroke="black" d="M281.5,-478.51C281.5,-464.9 281.5,-447.07 281.5,-429.28"/>
<polygon fill="black" stroke="black" points="285,-429.46 281.5,-419.46 278,-429.46 285,-429.46"/>
</g>
<!-- linear1.bias -->
<g id="node4" class="node">
<title>linear1.bias</title>
<path fill="Salmon" stroke="black" d="M442.38,-479C442.38,-479 658.62,-479 658.62,-479 664.62,-479 670.62,-485 670.62,-491 670.62,-491 670.62,-516 670.62,-516 670.62,-522 664.62,-528 658.62,-528 658.62,-528 442.38,-528 442.38,-528 436.38,-528 430.38,-522 430.38,-516 430.38,-516 430.38,-491 430.38,-491 430.38,-485 436.38,-479 442.38,-479"/>
<text text-anchor="middle" x="550.5" y="-510.7" font-family="Times,serif" font-size="14.00" fill="#000000">linear1.bias</text>
<polyline fill="none" stroke="black" points="430.38,-503.5 670.62,-503.5"/>
<text text-anchor="middle" x="550.5" y="-486.2" font-family="Times,serif" font-size="14.00" fill="#000000">op_code=get_parametertorch.float32[20]</text>
</g>
<!-- linear1.bias&#45;&gt;linear1 -->
<g id="edge2" class="edge">
<title>linear1.bias&#45;&gt;linear1</title>
<path fill="none" stroke="black" d="M500.37,-478.52C469.07,-463.26 427.82,-442.66 383.83,-418.65"/>
<polygon fill="black" stroke="black" points="385.58,-415.62 375.13,-413.88 382.21,-421.76 385.58,-415.62"/>
</g>
<!-- output -->
<g id="node8" class="node">
<title>output</title>
<path fill="PowderBlue" stroke="black" d="M478.25,-0.5C478.25,-0.5 558.75,-0.5 558.75,-0.5 564.75,-0.5 570.75,-6.5 570.75,-12.5 570.75,-12.5 570.75,-86.5 570.75,-86.5 570.75,-92.5 564.75,-98.5 558.75,-98.5 558.75,-98.5 478.25,-98.5 478.25,-98.5 472.25,-98.5 466.25,-92.5 466.25,-86.5 466.25,-86.5 466.25,-12.5 466.25,-12.5 466.25,-6.5 472.25,-0.5 478.25,-0.5"/>
<text text-anchor="middle" x="518.5" y="-81.2" font-family="Times,serif" font-size="14.00" fill="#000000">name=%output</text>
<polyline fill="none" stroke="black" points="466.25,-74 570.75,-74"/>
<text text-anchor="middle" x="518.5" y="-56.7" font-family="Times,serif" font-size="14.00" fill="#000000">op_code=output</text>
<polyline fill="none" stroke="black" points="466.25,-49.5 570.75,-49.5"/>
<text text-anchor="middle" x="518.5" y="-32.2" font-family="Times,serif" font-size="14.00" fill="#000000">target=output</text>
<polyline fill="none" stroke="black" points="466.25,-25 570.75,-25"/>
<text text-anchor="middle" x="518.5" y="-7.7" font-family="Times,serif" font-size="14.00" fill="#000000">num_users=0</text>
</g>
<!-- linear2&#45;&gt;output -->
<g id="edge7" class="edge">
<title>linear2&#45;&gt;output</title>
<path fill="none" stroke="black" d="M518.5,-135.41C518.5,-127.15 518.5,-118.67 518.5,-110.41"/>
<polygon fill="black" stroke="black" points="522,-110.45 518.5,-100.45 515,-110.45 522,-110.45"/>
</g>
<!-- linear2.weight -->
<g id="node6" class="node">
<title>linear2.weight</title>
<path fill="Salmon" stroke="black" d="M403.25,-331.75C403.25,-331.75 633.75,-331.75 633.75,-331.75 639.75,-331.75 645.75,-337.75 645.75,-343.75 645.75,-343.75 645.75,-368.75 645.75,-368.75 645.75,-374.75 639.75,-380.75 633.75,-380.75 633.75,-380.75 403.25,-380.75 403.25,-380.75 397.25,-380.75 391.25,-374.75 391.25,-368.75 391.25,-368.75 391.25,-343.75 391.25,-343.75 391.25,-337.75 397.25,-331.75 403.25,-331.75"/>
<text text-anchor="middle" x="518.5" y="-363.45" font-family="Times,serif" font-size="14.00" fill="#000000">linear2.weight</text>
<polyline fill="none" stroke="black" points="391.25,-356.25 645.75,-356.25"/>
<text text-anchor="middle" x="518.5" y="-338.95" font-family="Times,serif" font-size="14.00" fill="#000000">op_code=get_parametertorch.float32[5, 20]</text>
</g>
<!-- linear2.weight&#45;&gt;linear2 -->
<g id="edge3" class="edge">
<title>linear2.weight&#45;&gt;linear2</title>
<path fill="none" stroke="black" d="M518.5,-331.33C518.5,-314.84 518.5,-291.99 518.5,-269.84"/>
<polygon fill="black" stroke="black" points="522,-269.87 518.5,-259.87 515,-269.87 522,-269.87"/>
</g>
<!-- linear2.bias -->
<g id="node7" class="node">
<title>linear2.bias</title>
<path fill="Salmon" stroke="black" d="M675.75,-331.75C675.75,-331.75 885.25,-331.75 885.25,-331.75 891.25,-331.75 897.25,-337.75 897.25,-343.75 897.25,-343.75 897.25,-368.75 897.25,-368.75 897.25,-374.75 891.25,-380.75 885.25,-380.75 885.25,-380.75 675.75,-380.75 675.75,-380.75 669.75,-380.75 663.75,-374.75 663.75,-368.75 663.75,-368.75 663.75,-343.75 663.75,-343.75 663.75,-337.75 669.75,-331.75 675.75,-331.75"/>
<text text-anchor="middle" x="780.5" y="-363.45" font-family="Times,serif" font-size="14.00" fill="#000000">linear2.bias</text>
<polyline fill="none" stroke="black" points="663.75,-356.25 897.25,-356.25"/>
<text text-anchor="middle" x="780.5" y="-338.95" font-family="Times,serif" font-size="14.00" fill="#000000">op_code=get_parametertorch.float32[5]</text>
</g>
<!-- linear2.bias&#45;&gt;linear2 -->
<g id="edge4" class="edge">
<title>linear2.bias&#45;&gt;linear2</title>
<path fill="none" stroke="black" d="M740.71,-331.33C708.83,-312.17 662.66,-284.41 620.65,-259.16"/>
<polygon fill="black" stroke="black" points="622.59,-256.24 612.21,-254.09 618.98,-262.24 622.59,-256.24"/>
</g>
</g>
</svg>
