<?xml version="1.0" encoding="UTF-8" standalone="no"?>
<!DOCTYPE svg PUBLIC "-//W3C//DTD SVG 1.1//EN"
 "http://www.w3.org/Graphics/SVG/1.1/DTD/svg11.dtd">
<!-- Generated by graphviz version 12.2.1 (20241206.2353)
 -->
<!-- Title: GraphBreakModule Pages: 1 -->
<svg width="1468pt" height="635pt"
 viewBox="0.00 0.00 1468.00 634.50" xmlns="http://www.w3.org/2000/svg" xmlns:xlink="http://www.w3.org/1999/xlink">
<g id="graph0" class="graph" transform="scale(1 1) rotate(0) translate(4 630.5)">
<title>GraphBreakModule</title>
<polygon fill="white" stroke="none" points="-4,4 -4,-630.5 1464,-630.5 1464,4 -4,4"/>
<!-- x -->
<g id="node1" class="node">
<title>x</title>
<path fill="AliceBlue" stroke="black" d="M12,-503.5C12,-503.5 512.5,-503.5 512.5,-503.5 518.5,-503.5 524.5,-509.5 524.5,-515.5 524.5,-515.5 524.5,-614 524.5,-614 524.5,-620 518.5,-626 512.5,-626 512.5,-626 12,-626 12,-626 6,-626 0,-620 0,-614 0,-614 0,-515.5 0,-515.5 0,-509.5 6,-503.5 12,-503.5"/>
<text text-anchor="middle" x="262.25" y="-608.7" font-family="Times,serif" font-size="14.00" fill="#000000">name=%x</text>
<polyline fill="none" stroke="black" points="0,-601.5 524.5,-601.5"/>
<text text-anchor="middle" x="262.25" y="-584.2" font-family="Times,serif" font-size="14.00" fill="#000000">op_code=placeholder</text>
<polyline fill="none" stroke="black" points="0,-577 524.5,-577"/>
<text text-anchor="middle" x="262.25" y="-559.7" font-family="Times,serif" font-size="14.00" fill="#000000">target=x</text>
<polyline fill="none" stroke="black" points="0,-552.5 524.5,-552.5"/>
<text text-anchor="middle" x="262.25" y="-535.2" font-family="Times,serif" font-size="14.00" fill="#000000">num_users=1</text>
<polyline fill="none" stroke="black" points="0,-528 524.5,-528"/>
<text text-anchor="middle" x="262.25" y="-510.7" font-family="Times,serif" font-size="14.00" fill="#000000">file=fx/proxy.py:246 proxy.node.stack_trace = &quot;&quot;.join(CapturedTraceback.extract().format())</text>
</g>
<!-- linear1 -->
<g id="node2" class="node">
<title>linear1</title>
<g id="a_node2"><a xlink:title="Unsupported print statement. builtin: print [&lt;class &#39;torch._dynamo.variables.constant.ConstantVariable&#39;&gt;] False&#10;&#10;User Stack:&#10;/Volumes/PortableSSD/HPML/FinalProject/hope.py:98&#10;">
<path fill="#fffacd" stroke="black" d="M423,-319.5C423,-319.5 923.5,-319.5 923.5,-319.5 929.5,-319.5 935.5,-325.5 935.5,-331.5 935.5,-331.5 935.5,-454.5 935.5,-454.5 935.5,-460.5 929.5,-466.5 923.5,-466.5 923.5,-466.5 423,-466.5 423,-466.5 417,-466.5 411,-460.5 411,-454.5 411,-454.5 411,-331.5 411,-331.5 411,-325.5 417,-319.5 423,-319.5"/>
<text text-anchor="middle" x="673.25" y="-449.2" font-family="Times,serif" font-size="14.00" fill="#880808">name=%linear1</text>
<polyline fill="none" stroke="black" points="411,-442 935.5,-442"/>
<text text-anchor="middle" x="673.25" y="-424.7" font-family="Times,serif" font-size="14.00" fill="#880808">op_code=call_module</text>
<text text-anchor="middle" x="673.25" y="-392.2" font-family="Times,serif" font-size="14.00" fill="#880808">torch.nn.modules.linear.Linear</text>
<polyline fill="none" stroke="black" points="411,-385 935.5,-385"/>
<text text-anchor="middle" x="673.25" y="-367.7" font-family="Times,serif" font-size="14.00" fill="#880808">in_features: 10</text>
<text text-anchor="middle" x="673.25" y="-351.2" font-family="Times,serif" font-size="14.00" fill="#880808">out_features: 20</text>
<polyline fill="none" stroke="black" points="411,-344 935.5,-344"/>
<text text-anchor="middle" x="673.25" y="-326.7" font-family="Times,serif" font-size="14.00" fill="#880808">file=fx/proxy.py:246 proxy.node.stack_trace = &quot;&quot;.join(CapturedTraceback.extract().format())</text>
</a>
</g>
</g>
<!-- x&#45;&gt;linear1 -->
<g id="edge5" class="edge">
<title>x&#45;&gt;linear1</title>
<path fill="none" stroke="black" d="M409.18,-503.07C434.09,-492.78 460.26,-481.97 486.03,-471.32"/>
<polygon fill="black" stroke="black" points="487.36,-474.56 495.26,-467.51 484.68,-468.09 487.36,-474.56"/>
</g>
<!-- linear2 -->
<g id="node5" class="node">
<title>linear2</title>
<path fill="#fffacd" stroke="black" d="M831,-135.5C831,-135.5 1331.5,-135.5 1331.5,-135.5 1337.5,-135.5 1343.5,-141.5 1343.5,-147.5 1343.5,-147.5 1343.5,-270.5 1343.5,-270.5 1343.5,-276.5 1337.5,-282.5 1331.5,-282.5 1331.5,-282.5 831,-282.5 831,-282.5 825,-282.5 819,-276.5 819,-270.5 819,-270.5 819,-147.5 819,-147.5 819,-141.5 825,-135.5 831,-135.5"/>
<text text-anchor="middle" x="1081.25" y="-265.2" font-family="Times,serif" font-size="14.00" fill="#000000">name=%linear2</text>
<polyline fill="none" stroke="black" points="819,-258 1343.5,-258"/>
<text text-anchor="middle" x="1081.25" y="-240.7" font-family="Times,serif" font-size="14.00" fill="#000000">op_code=call_module</text>
<text text-anchor="middle" x="1081.25" y="-208.2" font-family="Times,serif" font-size="14.00" fill="#000000">torch.nn.modules.linear.Linear</text>
<polyline fill="none" stroke="black" points="819,-201 1343.5,-201"/>
<text text-anchor="middle" x="1081.25" y="-183.7" font-family="Times,serif" font-size="14.00" fill="#000000">in_features: 20</text>
<text text-anchor="middle" x="1081.25" y="-167.2" font-family="Times,serif" font-size="14.00" fill="#000000">out_features: 5</text>
<polyline fill="none" stroke="black" points="819,-160 1343.5,-160"/>
<text text-anchor="middle" x="1081.25" y="-142.7" font-family="Times,serif" font-size="14.00" fill="#000000">file=fx/proxy.py:246 proxy.node.stack_trace = &quot;&quot;.join(CapturedTraceback.extract().format())</text>
</g>
<!-- linear1&#45;&gt;linear2 -->
<g id="edge6" class="edge">
<title>linear1&#45;&gt;linear2</title>
<path fill="none" stroke="black" d="M836.85,-319.02C860.02,-308.68 883.92,-298.02 907.28,-287.6"/>
<polygon fill="black" stroke="black" points="908.53,-290.88 916.23,-283.61 905.67,-284.49 908.53,-290.88"/>
</g>
<!-- linear1.weight -->
<g id="node3" class="node">
<title>linear1.weight</title>
<path fill="Salmon" stroke="black" d="M554.62,-540.25C554.62,-540.25 791.88,-540.25 791.88,-540.25 797.88,-540.25 803.88,-546.25 803.88,-552.25 803.88,-552.25 803.88,-577.25 803.88,-577.25 803.88,-583.25 797.88,-589.25 791.88,-589.25 791.88,-589.25 554.62,-589.25 554.62,-589.25 548.62,-589.25 542.62,-583.25 542.62,-577.25 542.62,-577.25 542.62,-552.25 542.62,-552.25 542.62,-546.25 548.62,-540.25 554.62,-540.25"/>
<text text-anchor="middle" x="673.25" y="-571.95" font-family="Times,serif" font-size="14.00" fill="#000000">linear1.weight</text>
<polyline fill="none" stroke="black" points="542.62,-564.75 803.88,-564.75"/>
<text text-anchor="middle" x="673.25" y="-547.45" font-family="Times,serif" font-size="14.00" fill="#000000">op_code=get_parametertorch.float32[20, 10]</text>
</g>
<!-- linear1.weight&#45;&gt;linear1 -->
<g id="edge1" class="edge">
<title>linear1.weight&#45;&gt;linear1</title>
<path fill="none" stroke="black" d="M673.25,-539.79C673.25,-523.45 673.25,-500.74 673.25,-478.11"/>
<polygon fill="black" stroke="black" points="676.75,-478.19 673.25,-468.19 669.75,-478.19 676.75,-478.19"/>
</g>
<!-- linear1.bias -->
<g id="node4" class="node">
<title>linear1.bias</title>
<path fill="Salmon" stroke="black" d="M834.12,-540.25C834.12,-540.25 1050.38,-540.25 1050.38,-540.25 1056.38,-540.25 1062.38,-546.25 1062.38,-552.25 1062.38,-552.25 1062.38,-577.25 1062.38,-577.25 1062.38,-583.25 1056.38,-589.25 1050.38,-589.25 1050.38,-589.25 834.12,-589.25 834.12,-589.25 828.12,-589.25 822.12,-583.25 822.12,-577.25 822.12,-577.25 822.12,-552.25 822.12,-552.25 822.12,-546.25 828.12,-540.25 834.12,-540.25"/>
<text text-anchor="middle" x="942.25" y="-571.95" font-family="Times,serif" font-size="14.00" fill="#000000">linear1.bias</text>
<polyline fill="none" stroke="black" points="822.12,-564.75 1062.38,-564.75"/>
<text text-anchor="middle" x="942.25" y="-547.45" font-family="Times,serif" font-size="14.00" fill="#000000">op_code=get_parametertorch.float32[20]</text>
</g>
<!-- linear1.bias&#45;&gt;linear1 -->
<g id="edge2" class="edge">
<title>linear1.bias&#45;&gt;linear1</title>
<path fill="none" stroke="black" d="M904.28,-539.79C876.32,-522.15 836.61,-497.09 797.98,-472.71"/>
<polygon fill="black" stroke="black" points="800.32,-470.05 790,-467.67 796.58,-475.97 800.32,-470.05"/>
</g>
<!-- output -->
<g id="node8" class="node">
<title>output</title>
<path fill="PowderBlue" stroke="black" d="M1041,-0.5C1041,-0.5 1121.5,-0.5 1121.5,-0.5 1127.5,-0.5 1133.5,-6.5 1133.5,-12.5 1133.5,-12.5 1133.5,-86.5 1133.5,-86.5 1133.5,-92.5 1127.5,-98.5 1121.5,-98.5 1121.5,-98.5 1041,-98.5 1041,-98.5 1035,-98.5 1029,-92.5 1029,-86.5 1029,-86.5 1029,-12.5 1029,-12.5 1029,-6.5 1035,-0.5 1041,-0.5"/>
<text text-anchor="middle" x="1081.25" y="-81.2" font-family="Times,serif" font-size="14.00" fill="#000000">name=%output</text>
<polyline fill="none" stroke="black" points="1029,-74 1133.5,-74"/>
<text text-anchor="middle" x="1081.25" y="-56.7" font-family="Times,serif" font-size="14.00" fill="#000000">op_code=output</text>
<polyline fill="none" stroke="black" points="1029,-49.5 1133.5,-49.5"/>
<text text-anchor="middle" x="1081.25" y="-32.2" font-family="Times,serif" font-size="14.00" fill="#000000">target=output</text>
<polyline fill="none" stroke="black" points="1029,-25 1133.5,-25"/>
<text text-anchor="middle" x="1081.25" y="-7.7" font-family="Times,serif" font-size="14.00" fill="#000000">num_users=0</text>
</g>
<!-- linear2&#45;&gt;output -->
<g id="edge7" class="edge">
<title>linear2&#45;&gt;output</title>
<path fill="none" stroke="black" d="M1081.25,-135.24C1081.25,-126.81 1081.25,-118.28 1081.25,-110.05"/>
<polygon fill="black" stroke="black" points="1084.75,-110.16 1081.25,-100.16 1077.75,-110.16 1084.75,-110.16"/>
</g>
<!-- linear2.weight -->
<g id="node6" class="node">
<title>linear2.weight</title>
<path fill="Salmon" stroke="black" d="M966,-368.5C966,-368.5 1196.5,-368.5 1196.5,-368.5 1202.5,-368.5 1208.5,-374.5 1208.5,-380.5 1208.5,-380.5 1208.5,-405.5 1208.5,-405.5 1208.5,-411.5 1202.5,-417.5 1196.5,-417.5 1196.5,-417.5 966,-417.5 966,-417.5 960,-417.5 954,-411.5 954,-405.5 954,-405.5 954,-380.5 954,-380.5 954,-374.5 960,-368.5 966,-368.5"/>
<text text-anchor="middle" x="1081.25" y="-400.2" font-family="Times,serif" font-size="14.00" fill="#000000">linear2.weight</text>
<polyline fill="none" stroke="black" points="954,-393 1208.5,-393"/>
<text text-anchor="middle" x="1081.25" y="-375.7" font-family="Times,serif" font-size="14.00" fill="#000000">op_code=get_parametertorch.float32[5, 20]</text>
</g>
<!-- linear2.weight&#45;&gt;linear2 -->
<g id="edge3" class="edge">
<title>linear2.weight&#45;&gt;linear2</title>
<path fill="none" stroke="black" d="M1081.25,-368.21C1081.25,-349.24 1081.25,-321.46 1081.25,-294.46"/>
<polygon fill="black" stroke="black" points="1084.75,-294.48 1081.25,-284.48 1077.75,-294.48 1084.75,-294.48"/>
</g>
<!-- linear2.bias -->
<g id="node7" class="node">
<title>linear2.bias</title>
<path fill="Salmon" stroke="black" d="M1238.5,-368.5C1238.5,-368.5 1448,-368.5 1448,-368.5 1454,-368.5 1460,-374.5 1460,-380.5 1460,-380.5 1460,-405.5 1460,-405.5 1460,-411.5 1454,-417.5 1448,-417.5 1448,-417.5 1238.5,-417.5 1238.5,-417.5 1232.5,-417.5 1226.5,-411.5 1226.5,-405.5 1226.5,-405.5 1226.5,-380.5 1226.5,-380.5 1226.5,-374.5 1232.5,-368.5 1238.5,-368.5"/>
<text text-anchor="middle" x="1343.25" y="-400.2" font-family="Times,serif" font-size="14.00" fill="#000000">linear2.bias</text>
<polyline fill="none" stroke="black" points="1226.5,-393 1460,-393"/>
<text text-anchor="middle" x="1343.25" y="-375.7" font-family="Times,serif" font-size="14.00" fill="#000000">op_code=get_parametertorch.float32[5]</text>
</g>
<!-- linear2.bias&#45;&gt;linear2 -->
<g id="edge4" class="edge">
<title>linear2.bias&#45;&gt;linear2</title>
<path fill="none" stroke="black" d="M1308.73,-368.02C1279.66,-347.83 1236.38,-317.76 1195.34,-289.25"/>
<polygon fill="black" stroke="black" points="1197.53,-286.51 1187.32,-283.68 1193.54,-292.26 1197.53,-286.51"/>
</g>
</g>
</svg>
